<?xml version="1.0" encoding="UTF-8"?><svg id="a" xmlns="http://www.w3.org/2000/svg" viewBox="0 0 170.08 170.08"><path d="M165.11,76.47L93.61,4.96c-2.29-2.29-5.33-3.55-8.57-3.55s-6.27,1.26-8.56,3.55L4.96,76.47c-2.29,2.29-3.55,5.33-3.55,8.57s1.26,6.27,3.55,8.56l71.51,71.51c2.29,2.29,5.33,3.55,8.56,3.55s6.28-1.26,8.57-3.55l71.51-71.51c2.29-2.29,3.55-5.33,3.55-8.56s-1.26-6.28-3.55-8.57M159.68,81.91c.49.49.83,1.07,1.04,1.69h-74.23V9.36c.61.21,1.2.55,1.69,1.04l71.51,71.51ZM81.91,10.4c.49-.49,1.07-.83,1.69-1.04v74.23H9.36c.21-.62.55-1.2,1.04-1.69L81.91,10.4ZM10.4,88.17c-.49-.49-.83-1.07-1.03-1.69h74.23v74.23c-.62-.21-1.2-.54-1.69-1.04L10.4,88.17ZM88.17,159.68c-.49.49-1.07.83-1.69,1.04v-74.23h74.23c-.21.62-.55,1.2-1.04,1.69l-71.51,71.51ZM108.13,67.67c.09,0,.19,0,.28,0l26.53-1.29c1.07-.05,1.96-.7,2.35-1.69.38-1,.15-2.08-.6-2.84l-28.42-28.42c-.75-.75-1.84-.98-2.83-.6-.99.38-1.65,1.29-1.7,2.35l-1.29,26.52c-.08,1.6.53,3.17,1.66,4.31,1.07,1.07,2.53,1.67,4.03,1.67M106.58,35.82l27.69,27.69-26.01,1.27c-.8.04-1.56-.25-2.13-.82-.57-.57-.86-1.32-.82-2.13l1.26-26.01ZM61.69,102.43l-26.53,1.29c-1.07.05-1.96.7-2.35,1.7-.38,1-.15,2.08.6,2.83l28.42,28.42c.51.51,1.18.78,1.86.78.33,0,.65-.06.97-.18.99-.38,1.64-1.29,1.7-2.35l1.29-26.52c.08-1.6-.53-3.18-1.67-4.31-1.13-1.13-2.69-1.74-4.3-1.66M63.52,134.28l-27.69-27.7,25.83-1.25h.18c.8-.04,1.56.24,2.13.81.57.57.86,1.33.82,2.13l-1.27,26.01ZM134.93,103.73l-26.53-1.29c-1.61-.08-3.17.53-4.31,1.67-1.13,1.13-1.74,2.7-1.66,4.3l1.29,26.53c.05,1.07.7,1.97,1.7,2.35.32.12.65.18.97.18.69,0,1.35-.27,1.86-.78l28.42-28.42c.75-.75.98-1.84.6-2.83-.38-1-1.28-1.65-2.35-1.7M106.58,134.27l-1.26-26.01c-.04-.8.25-1.56.82-2.13.53-.53,1.24-.82,1.98-.82.05,0,.1,0,.14,0l26.01,1.26-27.69,27.69ZM35.17,66.37l26.53,1.29c.09,0,.19,0,.27,0,1.51,0,2.96-.6,4.03-1.67,1.13-1.13,1.74-2.7,1.66-4.31l-1.29-26.53c-.05-1.06-.7-1.96-1.7-2.35-.99-.38-2.08-.15-2.83.6l-28.42,28.42c-.75.75-.98,1.84-.6,2.83.38,1,1.29,1.64,2.35,1.7M63.52,35.82l1.27,26.01c.04.81-.25,1.56-.82,2.13-.57.57-1.31.86-2.13.82l-26.01-1.27,27.69-27.69Z" style="fill:#fff;"/></svg>