<?xml version="1.0" encoding="UTF-8"?><svg id="a" xmlns="http://www.w3.org/2000/svg" viewBox="0 0 170.08 170.08"><path d="M85.04,25.96C37.37,25.96,1.42,51.36,1.42,85.04s35.95,59.08,83.62,59.08,83.62-25.4,83.62-59.08-35.95-59.08-83.62-59.08M85.04,139.47c-45.02,0-78.98-23.4-78.98-54.43S40.02,30.61,85.04,30.61s78.98,23.4,78.98,54.43-33.95,54.43-78.98,54.43" style="fill:#fff;"/><path d="M128.77,71.59c-.52,0-.93.42-.93.93,0,4.16-2.28,8.05-6.22,11.36-8.33-6.31-21.91-10.07-36.54-10.07s-28.2,3.76-36.54,10.07c-3.95-3.31-6.22-7.2-6.22-11.36,0-.51-.42-.93-.93-.93s-.93.42-.93.93c0,13.09,20.02,23.75,44.62,23.75s44.62-10.65,44.62-23.75c0-.51-.41-.93-.93-.93M50.05,85.07c8.05-5.9,21.01-9.4,35.02-9.4s26.97,3.5,35.02,9.4c-7.74,5.65-20.55,9.35-35.02,9.35s-27.27-3.7-35.02-9.35" style="fill:#fff;"/></svg>