<?xml version="1.0" encoding="UTF-8"?><svg id="a" xmlns="http://www.w3.org/2000/svg" viewBox="0 0 170.08 170.08"><path d="M80.06,8.24c.76,0,1.56.06,2.45.16,4.74.52,5.09,1.77,5.49,3.95l2.38,13.15c4.69-3.62,9.21-4.98,12.6-4.98s5.78,1.45,5.78,3.38c.35,1.69.77,29.2.77,29.2l1.93.92s15.21,7.58,19.29,15.51c3.36,6.52,2.79,9.81,2.9,14.79l1,46.83s1.12,6.29-3.73,12.56c-4.53,5.86-17.57,18.12-44.44,18.12-1.88,0-3.83-.06-5.85-.19-30.82-1.93-44.72-16.43-45.3-28.26l1.08-52.29c0-1.93-.06-5.68,1.58-7.7,2.2-2.53,8.26-10.24,11.56-12.76,3.29-2.52,10.94-6.34,10.94-6.34l.72-30.56s-.29-6.37,7.06-10.81c5.97-3.6,8.52-4.68,11.8-4.68M80.06,1.42h0c-5.08,0-8.84,1.75-15.32,5.66-9.75,5.88-10.36,14.51-10.36,16.6l-.62,26.43c-2.68,1.44-6.18,3.44-8.36,5.11-2.94,2.25-6.75,6.73-10.72,11.51-.74.9-1.38,1.66-1.84,2.19-.05.06-.1.12-.15.19-3.1,3.84-3.09,9.02-3.09,11.81v.11l-1.08,52.22c0,.16,0,.32,0,.47.75,15.22,17.24,32.58,51.69,34.74,2.12.13,4.23.2,6.28.2,30.48,0,45.01-14.52,49.84-20.77,5.72-7.39,5.42-14.89,5.15-17.26l-.99-46.46c-.02-.68-.02-1.33-.02-1.96,0-4.32-.02-8.77-3.63-15.81-4.19-8.15-15.63-14.94-20.53-17.57-.3-18.13-.55-23.5-.71-25.33-.22-4.94-4.54-9.81-12.6-9.81-2.45,0-5,.46-7.55,1.33l-.7-3.9c-1.09-5.92-4.51-8.76-11.46-9.52-1.23-.13-2.24-.2-3.2-.2" style="fill:#fff;"/><path d="M110.81,52.88s2.17,1,8.93,7.84c4.91,4.97,9.91,20.22-14.42,28.81-24.33,8.59-45.27-2.06-45.27-2.06-18.96-8.87-13.39-23.63-11-27.49.46-.74,1.08-1.31,1.8-1.79" style="fill:none; stroke:#fff; stroke-linecap:round; stroke-linejoin:round; stroke-width:2.56px;"/><path d="M92.4,105.46s.08,4.21.45,5.41c.62,1.99,17.33.45,29.43-9.21,10.35-8.26,12.6-14.88,12.6-14.88" style="fill:none; stroke:#fff; stroke-linecap:round; stroke-linejoin:round; stroke-width:2.56px;"/><path d="M92.48,22.56c-2.46,1.89-7.03,7.33-9.43,10.59-.49.66-.83,1.41-1.02,2.21-.9,3.79-2.68,14.12-3.21,18.52-.63,5.17-1.32,10.63-4.15,12.21-2.19,1.23-6.29,1.01-7.12-4.69-.83-5.7-.04-33.57-.04-34.88s.36-2.5,2.58-5.17c2.6-3.01,10.03-9.13,17.73-8.23.79.17,1.38.54,1.84,1.34" style="fill:none; stroke:#fff; stroke-linecap:round; stroke-linejoin:round; stroke-width:2.56px;"/><path d="M94.14,35.22c12.87-2.97,16.41-9.04,15.91-11.36" style="fill:none; stroke:#fff; stroke-linecap:round; stroke-linejoin:round; stroke-width:2.56px;"/><path d="M35.13,79.05s.26,1.92.87,3.97c0,0,5.39,23.3,53.32,23.18,0,0,2.97.15,4.68-2.1,1.71-2.24,7.18-8.96,9.54-11.18,0,0,11.95-12.98,29.09-9.74,0,0,2.29-.46,2.25-3.67" style="fill:none; stroke:#fff; stroke-linecap:round; stroke-linejoin:round; stroke-width:2.56px;"/><path d="M110.8,52.88c.11,6.3.33,17.38-.06,19.44-.7,4.12-9.3,10.34-19.33,11.44-10.03,1.1-20.27-.05-27.19-4.97-5.45-3.96-5.29-12.2-5.29-12.2l.24-12.3" style="fill:none; stroke:#fff; stroke-linecap:round; stroke-linejoin:round; stroke-width:2.56px;"/></svg>