<?xml version="1.0" encoding="UTF-8"?><svg id="a" xmlns="http://www.w3.org/2000/svg" viewBox="0 0 170.08 170.08"><path d="M165.96,103.54c-3.73-17.15-10.75-34.78-19.24-48.37-8.75-13.99-20.2-27.26-32.25-37.37-6.69-5.61-19.31-15.03-28.67-15.03-.26,0-.51,0-.76.02-.25-.02-.51-.02-.76-.02-9.36,0-21.98,9.42-28.67,15.03-12.05,10.1-23.5,23.38-32.25,37.37-8.49,13.59-15.51,31.22-19.24,48.37-2.21,10.15-5.06,28.49.67,37.25,5.43,8.3,33.14,26.51,80.07,26.51h.38c46.92,0,74.63-18.21,80.07-26.51,5.73-8.76,2.88-27.1.67-37.25M140.31,59.18c13.11,20.98,20.29,48.08,20.76,64.58-.06-.15-.1-.29-.16-.44-9.26-21.24-63.23-36.53-73.93-39.38,3.49-9.22,19.58-54.02,9.03-69.53-.19-.28-.4-.53-.6-.78,12.3,6.67,30.84,23.05,44.91,45.54M151.51,140.24c-.28.02-.56.03-.85.03-17.35,0-51.98-40.72-61.94-52.89,14.42,4.05,61.5,18.55,69.59,37.08,1.71,3.91,1.52,7.68-.58,11.5-1.45,2.65-3.49,4.05-6.22,4.27M85.04,11.8c3.87,0,6.69,1.38,8.62,4.21,9.07,13.33-4.23,52.91-8.62,64.98-4.39-12.06-17.69-51.64-8.62-64.98,1.93-2.84,4.75-4.21,8.62-4.21M29.77,59.18c14.07-22.49,32.61-38.88,44.91-45.54-.2.26-.41.5-.6.78-10.52,15.46,5.44,60.05,8.99,69.45-9.85,2.61-64.15,17.81-74.03,39.04.68-16.57,7.84-43.11,20.73-63.73M12.02,135.96c-2.1-3.82-2.29-7.58-.58-11.5,8.08-18.53,55.16-33.03,69.59-37.08-10.12,12.37-45.79,54.24-62.79,52.85-2.73-.22-4.76-1.62-6.22-4.27M85.1,159.74h-.25c-33.33,0-55.45-9.45-66.32-16.65.16,0,.3.02.46.02,20.1,0,58.67-46.96,65.87-55.96,7.21,9,45.78,55.96,65.88,55.96.28,0,.55-.02.82-.03-10.86,7.2-32.99,16.66-66.34,16.66h-.13Z" style="fill:#fff;"/></svg>