<?xml version="1.0" encoding="UTF-8"?><svg id="a" xmlns="http://www.w3.org/2000/svg" viewBox="0 0 170.08 170.08"><rect x="49.73" y="50.49" width="70.85" height="70.85" rx="13.01" ry="13.01" transform="translate(-35.81 85.38) rotate(-45)" style="fill:none; stroke:#fff; stroke-linecap:round; stroke-linejoin:round; stroke-width:2.79px;"/><line x1="8.89" y1="85.92" x2="40.44" y2="85.92" style="fill:none; stroke:#fff; stroke-linecap:round; stroke-linejoin:round; stroke-width:2.79px;"/><line x1="129.86" y1="85.92" x2="161.21" y2="85.92" style="fill:none; stroke:#fff; stroke-linecap:round; stroke-linejoin:round; stroke-width:2.79px;"/><line x1="85.15" y1="8.87" x2="85.15" y2="41.21" style="fill:none; stroke:#fff; stroke-linecap:round; stroke-linejoin:round; stroke-width:2.79px;"/><line x1="85.15" y1="130.63" x2="85.15" y2="161.21" style="fill:none; stroke:#fff; stroke-linecap:round; stroke-linejoin:round; stroke-width:2.79px;"/><path d="M111.95,8.87c2.97,0,5.82,1.18,7.93,3.28l38.05,38.05c2.1,2.1,3.28,4.95,3.28,7.93v53.82c0,2.97-1.18,5.82-3.28,7.92l-38.05,38.05c-2.1,2.1-4.95,3.28-7.93,3.28h-53.82c-2.97,0-5.82-1.18-7.93-3.28L12.15,119.87c-2.1-2.1-3.29-4.95-3.29-7.92v-53.82c0-2.97,1.18-5.82,3.29-7.93L50.2,12.15c2.1-2.1,4.95-3.28,7.93-3.28h53.82ZM111.95,1.42h-53.82c-4.98,0-9.67,1.94-13.19,5.47L6.88,44.94c-3.52,3.52-5.47,8.21-5.47,13.19v53.82c0,4.98,1.94,9.67,5.47,13.19l38.05,38.05c3.52,3.52,8.21,5.46,13.19,5.46h53.82c4.98,0,9.67-1.94,13.19-5.46l38.05-38.05c3.52-3.52,5.47-8.21,5.47-13.19v-53.82c0-4.98-1.94-9.67-5.47-13.19L125.14,6.88c-3.52-3.52-8.21-5.47-13.19-5.47" style="fill:#fff; stroke:#fff; stroke-miterlimit:10; stroke-width:2.98px;"/></svg>