<?xml version="1.0" encoding="UTF-8"?><svg id="a" xmlns="http://www.w3.org/2000/svg" viewBox="0 0 170.08 170.08"><path d="M85.04,1.42C38.93,1.42,1.42,38.93,1.42,85.04s37.52,83.62,83.62,83.62,83.62-37.51,83.62-83.62S131.15,1.42,85.04,1.42M149.76,130.22c-7.49,5.36-17.21,10.38-23.83,12.93l-17.52-23.35,14.16-41.71,30.12-10.29c4.71,6.48,8.43,12.54,11.3,18.43-.24,16.34-5.47,31.48-14.23,43.99M44.16,143.15c-6.63-2.55-16.34-7.57-23.83-12.93-8.76-12.51-13.98-27.66-14.23-43.99,2.86-5.89,6.59-11.95,11.3-18.43l30.12,10.29,14.16,41.71-17.52,23.35ZM16.11,66.4c-3.99,5.46-7.28,10.63-9.97,15.66.55-14.76,5.17-28.49,12.77-40.11-1.98,9.49-2.9,17.55-2.8,24.45M63.37,119.04l-14.03-41.33,35.7-25.92,35.7,25.92-14.03,41.33h-43.33ZM153.98,66.4c.1-6.9-.82-14.96-2.8-24.44,7.6,11.62,12.21,25.35,12.77,40.11-2.69-5.03-5.97-10.2-9.97-15.66M148.38,37.93c2.58,11.13,3.81,20.36,3.73,28.1l-30.12,10.29-36.03-26.15v-31.91c9.61-3.76,19.74-5.83,29.58-6.06,13.12,5.51,24.44,14.47,32.84,25.73M111.23,10.55c-8.78.65-17.7,2.71-26.19,6.07-8.5-3.36-17.41-5.41-26.19-6.07,8.2-2.89,17.01-4.48,26.19-4.48s17.99,1.59,26.19,4.48M54.53,12.2c9.85.23,19.98,2.29,29.58,6.05v31.92l-36.02,26.15-30.12-10.29c-.08-7.73,1.14-16.97,3.73-28.1,8.4-11.26,19.72-20.21,32.83-25.73M23.73,134.75c6.9,4.37,14.66,8.22,20.16,10.3,3.51,4.86,7.47,9.38,11.46,13.16-12.43-5.06-23.28-13.19-31.62-23.45M60.14,159.97c-4.96-4.09-10.08-9.62-14.51-15.69l17.54-23.39h43.74l17.54,23.39c-4.43,6.07-9.55,11.6-14.51,15.69-7.83,2.61-16.2,4.05-24.9,4.05s-17.06-1.44-24.9-4.05M114.73,158.2c3.99-3.77,7.94-8.3,11.46-13.16,5.5-2.08,13.26-5.93,20.16-10.3-8.34,10.26-19.19,18.39-31.62,23.45" style="fill:#fff;"/></svg>